<?xml version="1.0" encoding="UTF-8"?>
<svg xmlns="http://www.w3.org/2000/svg" width="100%" height="100%" viewBox="0 0 1100 820" style="--mat-bg: #1c34ab; --guide-color: #eaea10; --grid-color-light: color-mix(in srgb, #eaea10 50%, transparent); --grid-color-medium: color-mix(in srgb, #eaea10 75%, transparent); background-color: rgb(28, 52, 171); max-width: 100%; max-height: 100%;" class="border-border rounded-xl shadow-lg border" preserveAspectRatio="xMidYMid meet"><rect x="0" y="0" width="1100" height="820" fill="#1c34ab" stroke="none"/><defs><clipPath id="gridClip"><rect x="50" y="50" width="1000" height="720"/></clipPath></defs><path d="M 50 570 A 200 200 0 0 1 250 770" fill="none" stroke="rgba(234,234,16,0.5)" stroke-width="1"/><line x1="246" y1="770" x2="254" y2="770" stroke="rgba(234,234,16,0.5)" stroke-width="0.5"/><line x1="245.25" y1="752.92" x2="253.22" y2="752.22" stroke="rgba(234,234,16,0.5)" stroke-width="0.5"/><line x1="243.02" y1="735.96" x2="250.9" y2="734.58" stroke="rgba(234,234,16,0.5)" stroke-width="0.5"/><line x1="239.32" y1="719.27" x2="247.05" y2="717.2" stroke="rgba(234,234,16,0.5)" stroke-width="0.5"/><line x1="234.18" y1="702.96" x2="241.7" y2="700.23" stroke="rgba(234,234,16,0.5)" stroke-width="0.5"/><line x1="227.64" y1="687.17" x2="234.89" y2="683.79" stroke="rgba(234,234,16,0.5)" stroke-width="0.5"/><line x1="219.74" y1="672" x2="226.67" y2="668" stroke="rgba(234,234,16,0.5)" stroke-width="0.5"/><line x1="210.55" y1="657.58" x2="217.11" y2="652.99" stroke="rgba(234,234,16,0.5)" stroke-width="0.5"/><line x1="200.14" y1="644.01" x2="206.27" y2="638.87" stroke="rgba(234,234,16,0.5)" stroke-width="0.5"/><line x1="188.59" y1="631.41" x2="194.25" y2="625.75" stroke="rgba(234,234,16,0.5)" stroke-width="0.5"/><line x1="175.99" y1="619.86" x2="181.13" y2="613.73" stroke="rgba(234,234,16,0.5)" stroke-width="0.5"/><line x1="162.42" y1="609.45" x2="167.01" y2="602.89" stroke="rgba(234,234,16,0.5)" stroke-width="0.5"/><line x1="148" y1="600.26" x2="152" y2="593.33" stroke="rgba(234,234,16,0.5)" stroke-width="0.5"/><line x1="132.83" y1="592.36" x2="136.21" y2="585.11" stroke="rgba(234,234,16,0.5)" stroke-width="0.5"/><line x1="117.04" y1="585.82" x2="119.77" y2="578.3" stroke="rgba(234,234,16,0.5)" stroke-width="0.5"/><line x1="100.73" y1="580.68" x2="102.8" y2="572.95" stroke="rgba(234,234,16,0.5)" stroke-width="0.5"/><line x1="84.04" y1="576.98" x2="85.42" y2="569.1" stroke="rgba(234,234,16,0.5)" stroke-width="0.5"/><line x1="67.08" y1="574.75" x2="67.78" y2="566.78" stroke="rgba(234,234,16,0.5)" stroke-width="0.5"/><line x1="50" y1="574" x2="50" y2="566" stroke="rgba(234,234,16,0.5)" stroke-width="0.5"/><rect x="140.99" y="665.01" width="16" height="12" fill="#1c34ab" stroke="none"/><path d="M 50 370 A 400 400 0 0 1 450 770" fill="none" stroke="rgba(234,234,16,0.5)" stroke-width="1"/><line x1="446" y1="770" x2="454" y2="770" stroke="rgba(234,234,16,0.5)" stroke-width="0.5"/><line x1="444.49" y1="735.49" x2="452.46" y2="734.79" stroke="rgba(234,234,16,0.5)" stroke-width="0.5"/><line x1="439.98" y1="701.24" x2="447.86" y2="699.85" stroke="rgba(234,234,16,0.5)" stroke-width="0.5"/><line x1="432.51" y1="667.51" x2="440.23" y2="665.44" stroke="rgba(234,234,16,0.5)" stroke-width="0.5"/><line x1="422.12" y1="634.56" x2="429.64" y2="631.82" stroke="rgba(234,234,16,0.5)" stroke-width="0.5"/><line x1="408.9" y1="602.64" x2="416.15" y2="599.26" stroke="rgba(234,234,16,0.5)" stroke-width="0.5"/><line x1="392.95" y1="572" x2="399.87" y2="568" stroke="rgba(234,234,16,0.5)" stroke-width="0.5"/><line x1="374.38" y1="542.86" x2="380.94" y2="538.28" stroke="rgba(234,234,16,0.5)" stroke-width="0.5"/><line x1="353.35" y1="515.46" x2="359.48" y2="510.31" stroke="rgba(234,234,16,0.5)" stroke-width="0.5"/><line x1="330.01" y1="489.99" x2="335.67" y2="484.33" stroke="rgba(234,234,16,0.5)" stroke-width="0.5"/><line x1="304.54" y1="466.65" x2="309.69" y2="460.52" stroke="rgba(234,234,16,0.5)" stroke-width="0.5"/><line x1="277.14" y1="445.62" x2="281.72" y2="439.06" stroke="rgba(234,234,16,0.5)" stroke-width="0.5"/><line x1="248" y1="427.05" x2="252" y2="420.13" stroke="rgba(234,234,16,0.5)" stroke-width="0.5"/><line x1="217.36" y1="411.1" x2="220.74" y2="403.85" stroke="rgba(234,234,16,0.5)" stroke-width="0.5"/><line x1="185.44" y1="397.88" x2="188.18" y2="390.36" stroke="rgba(234,234,16,0.5)" stroke-width="0.5"/><line x1="152.49" y1="387.49" x2="154.56" y2="379.77" stroke="rgba(234,234,16,0.5)" stroke-width="0.5"/><line x1="118.76" y1="380.02" x2="120.15" y2="372.14" stroke="rgba(234,234,16,0.5)" stroke-width="0.5"/><line x1="84.51" y1="375.51" x2="85.21" y2="367.54" stroke="rgba(234,234,16,0.5)" stroke-width="0.5"/><line x1="50" y1="374" x2="50" y2="366" stroke="rgba(234,234,16,0.5)" stroke-width="0.5"/><rect x="239.99" y="566.01" width="16" height="12" fill="#1c34ab" stroke="none"/><path d="M 50 170 A 600 600 0 0 1 650 770" fill="none" stroke="rgba(234,234,16,0.5)" stroke-width="1"/><line x1="646" y1="770" x2="654" y2="770" stroke="rgba(234,234,16,0.5)" stroke-width="0.5"/><line x1="643.73" y1="718.06" x2="651.7" y2="717.36" stroke="rgba(234,234,16,0.5)" stroke-width="0.5"/><line x1="636.95" y1="666.51" x2="644.82" y2="665.12" stroke="rgba(234,234,16,0.5)" stroke-width="0.5"/><line x1="625.69" y1="615.74" x2="633.42" y2="613.67" stroke="rgba(234,234,16,0.5)" stroke-width="0.5"/><line x1="610.06" y1="566.16" x2="617.57" y2="563.42" stroke="rgba(234,234,16,0.5)" stroke-width="0.5"/><line x1="590.16" y1="518.12" x2="597.41" y2="514.74" stroke="rgba(234,234,16,0.5)" stroke-width="0.5"/><line x1="566.15" y1="472" x2="573.08" y2="468" stroke="rgba(234,234,16,0.5)" stroke-width="0.5"/><line x1="538.21" y1="428.15" x2="544.77" y2="423.56" stroke="rgba(234,234,16,0.5)" stroke-width="0.5"/><line x1="506.56" y1="386.9" x2="512.69" y2="381.76" stroke="rgba(234,234,16,0.5)" stroke-width="0.5"/><line x1="471.44" y1="348.56" x2="477.09" y2="342.91" stroke="rgba(234,234,16,0.5)" stroke-width="0.5"/><line x1="433.1" y1="313.44" x2="438.24" y2="307.31" stroke="rgba(234,234,16,0.5)" stroke-width="0.5"/><line x1="391.85" y1="281.79" x2="396.44" y2="275.23" stroke="rgba(234,234,16,0.5)" stroke-width="0.5"/><line x1="348" y1="253.85" x2="352" y2="246.92" stroke="rgba(234,234,16,0.5)" stroke-width="0.5"/><line x1="301.88" y1="229.84" x2="305.26" y2="222.59" stroke="rgba(234,234,16,0.5)" stroke-width="0.5"/><line x1="253.84" y1="209.94" x2="256.58" y2="202.43" stroke="rgba(234,234,16,0.5)" stroke-width="0.5"/><line x1="204.26" y1="194.31" x2="206.33" y2="186.58" stroke="rgba(234,234,16,0.5)" stroke-width="0.5"/><line x1="153.49" y1="183.05" x2="154.88" y2="175.18" stroke="rgba(234,234,16,0.5)" stroke-width="0.5"/><line x1="101.94" y1="176.27" x2="102.64" y2="168.3" stroke="rgba(234,234,16,0.5)" stroke-width="0.5"/><line x1="50" y1="174" x2="50" y2="166" stroke="rgba(234,234,16,0.5)" stroke-width="0.5"/><rect x="338.98" y="467.02" width="16" height="12" fill="#1c34ab" stroke="none"/><line x1="50" y1="50" x2="50" y2="770" stroke="#eaea10" stroke-width="1"/><line x1="70" y1="50" x2="70" y2="770" stroke="rgba(234,234,16,0.5)" stroke-width="0.5"/><line x1="90" y1="50" x2="90" y2="770" stroke="rgba(234,234,16,0.5)" stroke-width="0.5"/><line x1="110" y1="50" x2="110" y2="770" stroke="rgba(234,234,16,0.5)" stroke-width="0.5"/><line x1="130" y1="50" x2="130" y2="770" stroke="rgba(234,234,16,0.5)" stroke-width="0.5"/><line x1="150" y1="50" x2="150" y2="770" stroke="#eaea10" stroke-width="1"/><line x1="170" y1="50" x2="170" y2="770" stroke="rgba(234,234,16,0.5)" stroke-width="0.5"/><line x1="190" y1="50" x2="190" y2="770" stroke="rgba(234,234,16,0.5)" stroke-width="0.5"/><line x1="210" y1="50" x2="210" y2="770" stroke="rgba(234,234,16,0.5)" stroke-width="0.5"/><line x1="230" y1="50" x2="230" y2="770" stroke="rgba(234,234,16,0.5)" stroke-width="0.5"/><line x1="250" y1="50" x2="250" y2="770" stroke="#eaea10" stroke-width="1"/><line x1="270" y1="50" x2="270" y2="770" stroke="rgba(234,234,16,0.5)" stroke-width="0.5"/><line x1="290" y1="50" x2="290" y2="770" stroke="rgba(234,234,16,0.5)" stroke-width="0.5"/><line x1="310" y1="50" x2="310" y2="770" stroke="rgba(234,234,16,0.5)" stroke-width="0.5"/><line x1="330" y1="50" x2="330" y2="770" stroke="rgba(234,234,16,0.5)" stroke-width="0.5"/><line x1="350" y1="50" x2="350" y2="770" stroke="#eaea10" stroke-width="1"/><line x1="370" y1="50" x2="370" y2="770" stroke="rgba(234,234,16,0.5)" stroke-width="0.5"/><line x1="390" y1="50" x2="390" y2="770" stroke="rgba(234,234,16,0.5)" stroke-width="0.5"/><line x1="410" y1="50" x2="410" y2="770" stroke="rgba(234,234,16,0.5)" stroke-width="0.5"/><line x1="430" y1="50" x2="430" y2="770" stroke="rgba(234,234,16,0.5)" stroke-width="0.5"/><line x1="450" y1="50" x2="450" y2="770" stroke="#eaea10" stroke-width="1"/><line x1="470" y1="50" x2="470" y2="770" stroke="rgba(234,234,16,0.5)" stroke-width="0.5"/><line x1="490" y1="50" x2="490" y2="770" stroke="rgba(234,234,16,0.5)" stroke-width="0.5"/><line x1="510" y1="50" x2="510" y2="770" stroke="rgba(234,234,16,0.5)" stroke-width="0.5"/><line x1="530" y1="50" x2="530" y2="770" stroke="rgba(234,234,16,0.5)" stroke-width="0.5"/><line x1="550" y1="50" x2="550" y2="770" stroke="#eaea10" stroke-width="1"/><line x1="570" y1="50" x2="570" y2="770" stroke="rgba(234,234,16,0.5)" stroke-width="0.5"/><line x1="590" y1="50" x2="590" y2="770" stroke="rgba(234,234,16,0.5)" stroke-width="0.5"/><line x1="610" y1="50" x2="610" y2="770" stroke="rgba(234,234,16,0.5)" stroke-width="0.5"/><line x1="630" y1="50" x2="630" y2="770" stroke="rgba(234,234,16,0.5)" stroke-width="0.5"/><line x1="650" y1="50" x2="650" y2="770" stroke="#eaea10" stroke-width="1"/><line x1="670" y1="50" x2="670" y2="770" stroke="rgba(234,234,16,0.5)" stroke-width="0.5"/><line x1="690" y1="50" x2="690" y2="770" stroke="rgba(234,234,16,0.5)" stroke-width="0.5"/><line x1="710" y1="50" x2="710" y2="770" stroke="rgba(234,234,16,0.5)" stroke-width="0.5"/><line x1="730" y1="50" x2="730" y2="770" stroke="rgba(234,234,16,0.5)" stroke-width="0.5"/><line x1="750" y1="50" x2="750" y2="770" stroke="#eaea10" stroke-width="1"/><line x1="770" y1="50" x2="770" y2="770" stroke="rgba(234,234,16,0.5)" stroke-width="0.5"/><line x1="790" y1="50" x2="790" y2="770" stroke="rgba(234,234,16,0.5)" stroke-width="0.5"/><line x1="810" y1="50" x2="810" y2="770" stroke="rgba(234,234,16,0.5)" stroke-width="0.5"/><line x1="830" y1="50" x2="830" y2="770" stroke="rgba(234,234,16,0.5)" stroke-width="0.5"/><line x1="850" y1="50" x2="850" y2="770" stroke="#eaea10" stroke-width="1"/><line x1="870" y1="50" x2="870" y2="770" stroke="rgba(234,234,16,0.5)" stroke-width="0.5"/><line x1="890" y1="50" x2="890" y2="770" stroke="rgba(234,234,16,0.5)" stroke-width="0.5"/><line x1="910" y1="50" x2="910" y2="770" stroke="rgba(234,234,16,0.5)" stroke-width="0.5"/><line x1="930" y1="50" x2="930" y2="770" stroke="rgba(234,234,16,0.5)" stroke-width="0.5"/><line x1="950" y1="50" x2="950" y2="770" stroke="#eaea10" stroke-width="1"/><line x1="970" y1="50" x2="970" y2="770" stroke="rgba(234,234,16,0.5)" stroke-width="0.5"/><line x1="990" y1="50" x2="990" y2="770" stroke="rgba(234,234,16,0.5)" stroke-width="0.5"/><line x1="1010" y1="50" x2="1010" y2="770" stroke="rgba(234,234,16,0.5)" stroke-width="0.5"/><line x1="1030" y1="50" x2="1030" y2="770" stroke="rgba(234,234,16,0.5)" stroke-width="0.5"/><line x1="1050" y1="50" x2="1050" y2="770" stroke="#eaea10" stroke-width="1"/><line x1="50" y1="50" x2="1050" y2="50" stroke="rgba(234,234,16,0.5)" stroke-width="0.5"/><line x1="50" y1="70" x2="1050" y2="70" stroke="#eaea10" stroke-width="1"/><line x1="50" y1="90" x2="1050" y2="90" stroke="rgba(234,234,16,0.5)" stroke-width="0.5"/><line x1="50" y1="110" x2="1050" y2="110" stroke="rgba(234,234,16,0.5)" stroke-width="0.5"/><line x1="50" y1="130" x2="1050" y2="130" stroke="rgba(234,234,16,0.5)" stroke-width="0.5"/><line x1="50" y1="150" x2="1050" y2="150" stroke="rgba(234,234,16,0.5)" stroke-width="0.5"/><line x1="50" y1="170" x2="1050" y2="170" stroke="#eaea10" stroke-width="1"/><line x1="50" y1="190" x2="1050" y2="190" stroke="rgba(234,234,16,0.5)" stroke-width="0.5"/><line x1="50" y1="210" x2="1050" y2="210" stroke="rgba(234,234,16,0.5)" stroke-width="0.5"/><line x1="50" y1="230" x2="1050" y2="230" stroke="rgba(234,234,16,0.5)" stroke-width="0.5"/><line x1="50" y1="250" x2="1050" y2="250" stroke="rgba(234,234,16,0.5)" stroke-width="0.5"/><line x1="50" y1="270" x2="1050" y2="270" stroke="#eaea10" stroke-width="1"/><line x1="50" y1="290" x2="1050" y2="290" stroke="rgba(234,234,16,0.5)" stroke-width="0.5"/><line x1="50" y1="310" x2="1050" y2="310" stroke="rgba(234,234,16,0.5)" stroke-width="0.5"/><line x1="50" y1="330" x2="1050" y2="330" stroke="rgba(234,234,16,0.5)" stroke-width="0.5"/><line x1="50" y1="350" x2="1050" y2="350" stroke="rgba(234,234,16,0.5)" stroke-width="0.5"/><line x1="50" y1="370" x2="1050" y2="370" stroke="#eaea10" stroke-width="1"/><line x1="50" y1="390" x2="1050" y2="390" stroke="rgba(234,234,16,0.5)" stroke-width="0.5"/><line x1="50" y1="410" x2="1050" y2="410" stroke="rgba(234,234,16,0.5)" stroke-width="0.5"/><line x1="50" y1="430" x2="1050" y2="430" stroke="rgba(234,234,16,0.5)" stroke-width="0.5"/><line x1="50" y1="450" x2="1050" y2="450" stroke="rgba(234,234,16,0.5)" stroke-width="0.5"/><line x1="50" y1="470" x2="1050" y2="470" stroke="#eaea10" stroke-width="1"/><line x1="50" y1="490" x2="1050" y2="490" stroke="rgba(234,234,16,0.5)" stroke-width="0.5"/><line x1="50" y1="510" x2="1050" y2="510" stroke="rgba(234,234,16,0.5)" stroke-width="0.5"/><line x1="50" y1="530" x2="1050" y2="530" stroke="rgba(234,234,16,0.5)" stroke-width="0.5"/><line x1="50" y1="550" x2="1050" y2="550" stroke="rgba(234,234,16,0.5)" stroke-width="0.5"/><line x1="50" y1="570" x2="1050" y2="570" stroke="#eaea10" stroke-width="1"/><line x1="50" y1="590" x2="1050" y2="590" stroke="rgba(234,234,16,0.5)" stroke-width="0.5"/><line x1="50" y1="610" x2="1050" y2="610" stroke="rgba(234,234,16,0.5)" stroke-width="0.5"/><line x1="50" y1="630" x2="1050" y2="630" stroke="rgba(234,234,16,0.5)" stroke-width="0.5"/><line x1="50" y1="650" x2="1050" y2="650" stroke="rgba(234,234,16,0.5)" stroke-width="0.5"/><line x1="50" y1="670" x2="1050" y2="670" stroke="#eaea10" stroke-width="1"/><line x1="50" y1="690" x2="1050" y2="690" stroke="rgba(234,234,16,0.5)" stroke-width="0.5"/><line x1="50" y1="710" x2="1050" y2="710" stroke="rgba(234,234,16,0.5)" stroke-width="0.5"/><line x1="50" y1="730" x2="1050" y2="730" stroke="rgba(234,234,16,0.5)" stroke-width="0.5"/><line x1="50" y1="750" x2="1050" y2="750" stroke="rgba(234,234,16,0.5)" stroke-width="0.5"/><line x1="50" y1="770" x2="1050" y2="770" stroke="#eaea10" stroke-width="1"/><line x1="50" y1="30" x2="50" y2="50" stroke="#eaea10" stroke-width="0.5"/><line x1="70" y1="30" x2="70" y2="40" stroke="#eaea10" stroke-width="0.5"/><line x1="90" y1="30" x2="90" y2="40" stroke="#eaea10" stroke-width="0.5"/><line x1="110" y1="30" x2="110" y2="40" stroke="#eaea10" stroke-width="0.5"/><line x1="130" y1="30" x2="130" y2="40" stroke="#eaea10" stroke-width="0.5"/><line x1="150" y1="30" x2="150" y2="50" stroke="#eaea10" stroke-width="0.5"/><line x1="170" y1="30" x2="170" y2="40" stroke="#eaea10" stroke-width="0.5"/><line x1="190" y1="30" x2="190" y2="40" stroke="#eaea10" stroke-width="0.5"/><line x1="210" y1="30" x2="210" y2="40" stroke="#eaea10" stroke-width="0.5"/><line x1="230" y1="30" x2="230" y2="40" stroke="#eaea10" stroke-width="0.5"/><line x1="250" y1="30" x2="250" y2="50" stroke="#eaea10" stroke-width="0.5"/><line x1="270" y1="30" x2="270" y2="40" stroke="#eaea10" stroke-width="0.5"/><line x1="290" y1="30" x2="290" y2="40" stroke="#eaea10" stroke-width="0.5"/><line x1="310" y1="30" x2="310" y2="40" stroke="#eaea10" stroke-width="0.5"/><line x1="330" y1="30" x2="330" y2="40" stroke="#eaea10" stroke-width="0.5"/><line x1="350" y1="30" x2="350" y2="50" stroke="#eaea10" stroke-width="0.5"/><line x1="370" y1="30" x2="370" y2="40" stroke="#eaea10" stroke-width="0.5"/><line x1="390" y1="30" x2="390" y2="40" stroke="#eaea10" stroke-width="0.5"/><line x1="410" y1="30" x2="410" y2="40" stroke="#eaea10" stroke-width="0.5"/><line x1="430" y1="30" x2="430" y2="40" stroke="#eaea10" stroke-width="0.5"/><line x1="450" y1="30" x2="450" y2="50" stroke="#eaea10" stroke-width="0.5"/><line x1="470" y1="30" x2="470" y2="40" stroke="#eaea10" stroke-width="0.5"/><line x1="490" y1="30" x2="490" y2="40" stroke="#eaea10" stroke-width="0.5"/><line x1="510" y1="30" x2="510" y2="40" stroke="#eaea10" stroke-width="0.5"/><line x1="530" y1="30" x2="530" y2="40" stroke="#eaea10" stroke-width="0.5"/><line x1="550" y1="30" x2="550" y2="50" stroke="#eaea10" stroke-width="0.5"/><line x1="570" y1="30" x2="570" y2="40" stroke="#eaea10" stroke-width="0.5"/><line x1="590" y1="30" x2="590" y2="40" stroke="#eaea10" stroke-width="0.5"/><line x1="610" y1="30" x2="610" y2="40" stroke="#eaea10" stroke-width="0.5"/><line x1="630" y1="30" x2="630" y2="40" stroke="#eaea10" stroke-width="0.5"/><line x1="650" y1="30" x2="650" y2="50" stroke="#eaea10" stroke-width="0.5"/><line x1="670" y1="30" x2="670" y2="40" stroke="#eaea10" stroke-width="0.5"/><line x1="690" y1="30" x2="690" y2="40" stroke="#eaea10" stroke-width="0.5"/><line x1="710" y1="30" x2="710" y2="40" stroke="#eaea10" stroke-width="0.5"/><line x1="730" y1="30" x2="730" y2="40" stroke="#eaea10" stroke-width="0.5"/><line x1="750" y1="30" x2="750" y2="50" stroke="#eaea10" stroke-width="0.5"/><line x1="770" y1="30" x2="770" y2="40" stroke="#eaea10" stroke-width="0.5"/><line x1="790" y1="30" x2="790" y2="40" stroke="#eaea10" stroke-width="0.5"/><line x1="810" y1="30" x2="810" y2="40" stroke="#eaea10" stroke-width="0.5"/><line x1="830" y1="30" x2="830" y2="40" stroke="#eaea10" stroke-width="0.5"/><line x1="850" y1="30" x2="850" y2="50" stroke="#eaea10" stroke-width="0.5"/><line x1="870" y1="30" x2="870" y2="40" stroke="#eaea10" stroke-width="0.5"/><line x1="890" y1="30" x2="890" y2="40" stroke="#eaea10" stroke-width="0.5"/><line x1="910" y1="30" x2="910" y2="40" stroke="#eaea10" stroke-width="0.5"/><line x1="930" y1="30" x2="930" y2="40" stroke="#eaea10" stroke-width="0.5"/><line x1="950" y1="30" x2="950" y2="50" stroke="#eaea10" stroke-width="0.5"/><line x1="970" y1="30" x2="970" y2="40" stroke="#eaea10" stroke-width="0.5"/><line x1="990" y1="30" x2="990" y2="40" stroke="#eaea10" stroke-width="0.5"/><line x1="1010" y1="30" x2="1010" y2="40" stroke="#eaea10" stroke-width="0.5"/><line x1="1030" y1="30" x2="1030" y2="40" stroke="#eaea10" stroke-width="0.5"/><line x1="1050" y1="30" x2="1050" y2="50" stroke="#eaea10" stroke-width="0.5"/><line x1="30" y1="50" x2="40" y2="50" stroke="#eaea10" stroke-width="0.5"/><line x1="30" y1="70" x2="50" y2="70" stroke="#eaea10" stroke-width="0.5"/><line x1="30" y1="90" x2="40" y2="90" stroke="#eaea10" stroke-width="0.5"/><line x1="30" y1="110" x2="40" y2="110" stroke="#eaea10" stroke-width="0.5"/><line x1="30" y1="130" x2="40" y2="130" stroke="#eaea10" stroke-width="0.5"/><line x1="30" y1="150" x2="40" y2="150" stroke="#eaea10" stroke-width="0.5"/><line x1="30" y1="170" x2="50" y2="170" stroke="#eaea10" stroke-width="0.5"/><line x1="30" y1="190" x2="40" y2="190" stroke="#eaea10" stroke-width="0.5"/><line x1="30" y1="210" x2="40" y2="210" stroke="#eaea10" stroke-width="0.5"/><line x1="30" y1="230" x2="40" y2="230" stroke="#eaea10" stroke-width="0.5"/><line x1="30" y1="250" x2="40" y2="250" stroke="#eaea10" stroke-width="0.5"/><line x1="30" y1="270" x2="50" y2="270" stroke="#eaea10" stroke-width="0.5"/><line x1="30" y1="290" x2="40" y2="290" stroke="#eaea10" stroke-width="0.5"/><line x1="30" y1="310" x2="40" y2="310" stroke="#eaea10" stroke-width="0.5"/><line x1="30" y1="330" x2="40" y2="330" stroke="#eaea10" stroke-width="0.5"/><line x1="30" y1="350" x2="40" y2="350" stroke="#eaea10" stroke-width="0.5"/><line x1="30" y1="370" x2="50" y2="370" stroke="#eaea10" stroke-width="0.5"/><line x1="30" y1="390" x2="40" y2="390" stroke="#eaea10" stroke-width="0.5"/><line x1="30" y1="410" x2="40" y2="410" stroke="#eaea10" stroke-width="0.5"/><line x1="30" y1="430" x2="40" y2="430" stroke="#eaea10" stroke-width="0.5"/><line x1="30" y1="450" x2="40" y2="450" stroke="#eaea10" stroke-width="0.5"/><line x1="30" y1="470" x2="50" y2="470" stroke="#eaea10" stroke-width="0.5"/><line x1="30" y1="490" x2="40" y2="490" stroke="#eaea10" stroke-width="0.5"/><line x1="30" y1="510" x2="40" y2="510" stroke="#eaea10" stroke-width="0.5"/><line x1="30" y1="530" x2="40" y2="530" stroke="#eaea10" stroke-width="0.5"/><line x1="30" y1="550" x2="40" y2="550" stroke="#eaea10" stroke-width="0.5"/><line x1="30" y1="570" x2="50" y2="570" stroke="#eaea10" stroke-width="0.5"/><line x1="30" y1="590" x2="40" y2="590" stroke="#eaea10" stroke-width="0.5"/><line x1="30" y1="610" x2="40" y2="610" stroke="#eaea10" stroke-width="0.5"/><line x1="30" y1="630" x2="40" y2="630" stroke="#eaea10" stroke-width="0.5"/><line x1="30" y1="650" x2="40" y2="650" stroke="#eaea10" stroke-width="0.5"/><line x1="30" y1="670" x2="50" y2="670" stroke="#eaea10" stroke-width="0.5"/><line x1="30" y1="690" x2="40" y2="690" stroke="#eaea10" stroke-width="0.5"/><line x1="30" y1="710" x2="40" y2="710" stroke="#eaea10" stroke-width="0.5"/><line x1="30" y1="730" x2="40" y2="730" stroke="#eaea10" stroke-width="0.5"/><line x1="30" y1="750" x2="40" y2="750" stroke="#eaea10" stroke-width="0.5"/><line x1="30" y1="770" x2="50" y2="770" stroke="#eaea10" stroke-width="0.5"/><line x1="1060" y1="50" x2="1070" y2="50" stroke="#eaea10" stroke-width="0.5"/><line x1="1050" y1="70" x2="1070" y2="70" stroke="#eaea10" stroke-width="0.5"/><line x1="1060" y1="90" x2="1070" y2="90" stroke="#eaea10" stroke-width="0.5"/><line x1="1060" y1="110" x2="1070" y2="110" stroke="#eaea10" stroke-width="0.5"/><line x1="1060" y1="130" x2="1070" y2="130" stroke="#eaea10" stroke-width="0.5"/><line x1="1060" y1="150" x2="1070" y2="150" stroke="#eaea10" stroke-width="0.5"/><line x1="1050" y1="170" x2="1070" y2="170" stroke="#eaea10" stroke-width="0.5"/><line x1="1060" y1="190" x2="1070" y2="190" stroke="#eaea10" stroke-width="0.5"/><line x1="1060" y1="210" x2="1070" y2="210" stroke="#eaea10" stroke-width="0.5"/><line x1="1060" y1="230" x2="1070" y2="230" stroke="#eaea10" stroke-width="0.5"/><line x1="1060" y1="250" x2="1070" y2="250" stroke="#eaea10" stroke-width="0.5"/><line x1="1050" y1="270" x2="1070" y2="270" stroke="#eaea10" stroke-width="0.5"/><line x1="1060" y1="290" x2="1070" y2="290" stroke="#eaea10" stroke-width="0.5"/><line x1="1060" y1="310" x2="1070" y2="310" stroke="#eaea10" stroke-width="0.5"/><line x1="1060" y1="330" x2="1070" y2="330" stroke="#eaea10" stroke-width="0.5"/><line x1="1060" y1="350" x2="1070" y2="350" stroke="#eaea10" stroke-width="0.5"/><line x1="1050" y1="370" x2="1070" y2="370" stroke="#eaea10" stroke-width="0.5"/><line x1="1060" y1="390" x2="1070" y2="390" stroke="#eaea10" stroke-width="0.5"/><line x1="1060" y1="410" x2="1070" y2="410" stroke="#eaea10" stroke-width="0.5"/><line x1="1060" y1="430" x2="1070" y2="430" stroke="#eaea10" stroke-width="0.5"/><line x1="1060" y1="450" x2="1070" y2="450" stroke="#eaea10" stroke-width="0.5"/><line x1="1050" y1="470" x2="1070" y2="470" stroke="#eaea10" stroke-width="0.5"/><line x1="1060" y1="490" x2="1070" y2="490" stroke="#eaea10" stroke-width="0.5"/><line x1="1060" y1="510" x2="1070" y2="510" stroke="#eaea10" stroke-width="0.5"/><line x1="1060" y1="530" x2="1070" y2="530" stroke="#eaea10" stroke-width="0.5"/><line x1="1060" y1="550" x2="1070" y2="550" stroke="#eaea10" stroke-width="0.5"/><line x1="1050" y1="570" x2="1070" y2="570" stroke="#eaea10" stroke-width="0.5"/><line x1="1060" y1="590" x2="1070" y2="590" stroke="#eaea10" stroke-width="0.5"/><line x1="1060" y1="610" x2="1070" y2="610" stroke="#eaea10" stroke-width="0.5"/><line x1="1060" y1="630" x2="1070" y2="630" stroke="#eaea10" stroke-width="0.5"/><line x1="1060" y1="650" x2="1070" y2="650" stroke="#eaea10" stroke-width="0.5"/><line x1="1050" y1="670" x2="1070" y2="670" stroke="#eaea10" stroke-width="0.5"/><line x1="1060" y1="690" x2="1070" y2="690" stroke="#eaea10" stroke-width="0.5"/><line x1="1060" y1="710" x2="1070" y2="710" stroke="#eaea10" stroke-width="0.5"/><line x1="1060" y1="730" x2="1070" y2="730" stroke="#eaea10" stroke-width="0.5"/><line x1="1060" y1="750" x2="1070" y2="750" stroke="#eaea10" stroke-width="0.5"/><line x1="1050" y1="770" x2="1070" y2="770" stroke="#eaea10" stroke-width="0.5"/><line x1="50" y1="770" x2="50" y2="790" stroke="#eaea10" stroke-width="0.5"/><line x1="70" y1="780" x2="70" y2="790" stroke="#eaea10" stroke-width="0.5"/><line x1="90" y1="780" x2="90" y2="790" stroke="#eaea10" stroke-width="0.5"/><line x1="110" y1="780" x2="110" y2="790" stroke="#eaea10" stroke-width="0.5"/><line x1="130" y1="780" x2="130" y2="790" stroke="#eaea10" stroke-width="0.5"/><line x1="150" y1="770" x2="150" y2="790" stroke="#eaea10" stroke-width="0.5"/><line x1="170" y1="780" x2="170" y2="790" stroke="#eaea10" stroke-width="0.5"/><line x1="190" y1="780" x2="190" y2="790" stroke="#eaea10" stroke-width="0.5"/><line x1="210" y1="780" x2="210" y2="790" stroke="#eaea10" stroke-width="0.5"/><line x1="230" y1="780" x2="230" y2="790" stroke="#eaea10" stroke-width="0.5"/><line x1="250" y1="770" x2="250" y2="790" stroke="#eaea10" stroke-width="0.5"/><line x1="270" y1="780" x2="270" y2="790" stroke="#eaea10" stroke-width="0.5"/><line x1="290" y1="780" x2="290" y2="790" stroke="#eaea10" stroke-width="0.5"/><line x1="310" y1="780" x2="310" y2="790" stroke="#eaea10" stroke-width="0.5"/><line x1="330" y1="780" x2="330" y2="790" stroke="#eaea10" stroke-width="0.5"/><line x1="350" y1="770" x2="350" y2="790" stroke="#eaea10" stroke-width="0.5"/><line x1="370" y1="780" x2="370" y2="790" stroke="#eaea10" stroke-width="0.5"/><line x1="390" y1="780" x2="390" y2="790" stroke="#eaea10" stroke-width="0.5"/><line x1="410" y1="780" x2="410" y2="790" stroke="#eaea10" stroke-width="0.5"/><line x1="430" y1="780" x2="430" y2="790" stroke="#eaea10" stroke-width="0.5"/><line x1="450" y1="770" x2="450" y2="790" stroke="#eaea10" stroke-width="0.5"/><line x1="470" y1="780" x2="470" y2="790" stroke="#eaea10" stroke-width="0.5"/><line x1="490" y1="780" x2="490" y2="790" stroke="#eaea10" stroke-width="0.5"/><line x1="510" y1="780" x2="510" y2="790" stroke="#eaea10" stroke-width="0.5"/><line x1="530" y1="780" x2="530" y2="790" stroke="#eaea10" stroke-width="0.5"/><line x1="550" y1="770" x2="550" y2="790" stroke="#eaea10" stroke-width="0.5"/><line x1="570" y1="780" x2="570" y2="790" stroke="#eaea10" stroke-width="0.5"/><line x1="590" y1="780" x2="590" y2="790" stroke="#eaea10" stroke-width="0.5"/><line x1="610" y1="780" x2="610" y2="790" stroke="#eaea10" stroke-width="0.5"/><line x1="630" y1="780" x2="630" y2="790" stroke="#eaea10" stroke-width="0.5"/><line x1="650" y1="770" x2="650" y2="790" stroke="#eaea10" stroke-width="0.5"/><line x1="670" y1="780" x2="670" y2="790" stroke="#eaea10" stroke-width="0.5"/><line x1="690" y1="780" x2="690" y2="790" stroke="#eaea10" stroke-width="0.5"/><line x1="710" y1="780" x2="710" y2="790" stroke="#eaea10" stroke-width="0.5"/><line x1="730" y1="780" x2="730" y2="790" stroke="#eaea10" stroke-width="0.5"/><line x1="750" y1="770" x2="750" y2="790" stroke="#eaea10" stroke-width="0.5"/><line x1="770" y1="780" x2="770" y2="790" stroke="#eaea10" stroke-width="0.5"/><line x1="790" y1="780" x2="790" y2="790" stroke="#eaea10" stroke-width="0.5"/><line x1="810" y1="780" x2="810" y2="790" stroke="#eaea10" stroke-width="0.5"/><line x1="830" y1="780" x2="830" y2="790" stroke="#eaea10" stroke-width="0.5"/><line x1="850" y1="770" x2="850" y2="790" stroke="#eaea10" stroke-width="0.5"/><line x1="870" y1="780" x2="870" y2="790" stroke="#eaea10" stroke-width="0.5"/><line x1="890" y1="780" x2="890" y2="790" stroke="#eaea10" stroke-width="0.5"/><line x1="910" y1="780" x2="910" y2="790" stroke="#eaea10" stroke-width="0.5"/><line x1="930" y1="780" x2="930" y2="790" stroke="#eaea10" stroke-width="0.5"/><line x1="950" y1="770" x2="950" y2="790" stroke="#eaea10" stroke-width="0.5"/><line x1="970" y1="780" x2="970" y2="790" stroke="#eaea10" stroke-width="0.5"/><line x1="990" y1="780" x2="990" y2="790" stroke="#eaea10" stroke-width="0.5"/><line x1="1010" y1="780" x2="1010" y2="790" stroke="#eaea10" stroke-width="0.5"/><line x1="1030" y1="780" x2="1030" y2="790" stroke="#eaea10" stroke-width="0.5"/><line x1="1050" y1="770" x2="1050" y2="790" stroke="#eaea10" stroke-width="0.5"/><rect x="38" y="15" width="24" height="12" fill="#1c34ab" stroke="none"/><text x="50" y="25" text-anchor="middle" font-size="10" fill="#eaea10" font-family="Helvetica" font-style="normal" font-weight="400">0</text><rect x="138" y="15" width="24" height="12" fill="#1c34ab" stroke="none"/><text x="150" y="25" text-anchor="middle" font-size="10" fill="#eaea10" font-family="Helvetica" font-style="normal" font-weight="400">5</text><rect x="238" y="15" width="24" height="12" fill="#1c34ab" stroke="none"/><text x="250" y="25" text-anchor="middle" font-size="10" fill="#eaea10" font-family="Helvetica" font-style="normal" font-weight="400">10</text><rect x="338" y="15" width="24" height="12" fill="#1c34ab" stroke="none"/><text x="350" y="25" text-anchor="middle" font-size="10" fill="#eaea10" font-family="Helvetica" font-style="normal" font-weight="400">15</text><rect x="438" y="15" width="24" height="12" fill="#1c34ab" stroke="none"/><text x="450" y="25" text-anchor="middle" font-size="10" fill="#eaea10" font-family="Helvetica" font-style="normal" font-weight="400">20</text><rect x="538" y="15" width="24" height="12" fill="#1c34ab" stroke="none"/><text x="550" y="25" text-anchor="middle" font-size="10" fill="#eaea10" font-family="Helvetica" font-style="normal" font-weight="400">25</text><rect x="638" y="15" width="24" height="12" fill="#1c34ab" stroke="none"/><text x="650" y="25" text-anchor="middle" font-size="10" fill="#eaea10" font-family="Helvetica" font-style="normal" font-weight="400">30</text><rect x="738" y="15" width="24" height="12" fill="#1c34ab" stroke="none"/><text x="750" y="25" text-anchor="middle" font-size="10" fill="#eaea10" font-family="Helvetica" font-style="normal" font-weight="400">35</text><rect x="838" y="15" width="24" height="12" fill="#1c34ab" stroke="none"/><text x="850" y="25" text-anchor="middle" font-size="10" fill="#eaea10" font-family="Helvetica" font-style="normal" font-weight="400">40</text><rect x="938" y="15" width="24" height="12" fill="#1c34ab" stroke="none"/><text x="950" y="25" text-anchor="middle" font-size="10" fill="#eaea10" font-family="Helvetica" font-style="normal" font-weight="400">45</text><rect x="1038" y="15" width="24" height="12" fill="#1c34ab" stroke="none"/><text x="1050" y="25" text-anchor="middle" font-size="10" fill="#eaea10" font-family="Helvetica" font-style="normal" font-weight="400">50</text><rect x="10" y="64" width="24" height="12" fill="#1c34ab" stroke="none"/><text x="23" y="73" text-anchor="middle" font-size="10" fill="#eaea10" font-family="Helvetica" font-style="normal" font-weight="400">35</text><rect x="10" y="164" width="24" height="12" fill="#1c34ab" stroke="none"/><text x="23" y="173" text-anchor="middle" font-size="10" fill="#eaea10" font-family="Helvetica" font-style="normal" font-weight="400">30</text><rect x="10" y="264" width="24" height="12" fill="#1c34ab" stroke="none"/><text x="23" y="273" text-anchor="middle" font-size="10" fill="#eaea10" font-family="Helvetica" font-style="normal" font-weight="400">25</text><rect x="10" y="364" width="24" height="12" fill="#1c34ab" stroke="none"/><text x="23" y="373" text-anchor="middle" font-size="10" fill="#eaea10" font-family="Helvetica" font-style="normal" font-weight="400">20</text><rect x="10" y="464" width="24" height="12" fill="#1c34ab" stroke="none"/><text x="23" y="473" text-anchor="middle" font-size="10" fill="#eaea10" font-family="Helvetica" font-style="normal" font-weight="400">15</text><rect x="10" y="564" width="24" height="12" fill="#1c34ab" stroke="none"/><text x="23" y="573" text-anchor="middle" font-size="10" fill="#eaea10" font-family="Helvetica" font-style="normal" font-weight="400">10</text><rect x="10" y="664" width="24" height="12" fill="#1c34ab" stroke="none"/><text x="23" y="673" text-anchor="middle" font-size="10" fill="#eaea10" font-family="Helvetica" font-style="normal" font-weight="400">5</text><rect x="10" y="764" width="24" height="12" fill="#1c34ab" stroke="none"/><text x="23" y="773" text-anchor="middle" font-size="10" fill="#eaea10" font-family="Helvetica" font-style="normal" font-weight="400">0</text><rect x="1066" y="64" width="24" height="12" fill="#1c34ab" stroke="none"/><text x="1077" y="73" text-anchor="middle" font-size="10" fill="#eaea10" font-family="Helvetica" font-style="normal" font-weight="400">35</text><rect x="1066" y="164" width="24" height="12" fill="#1c34ab" stroke="none"/><text x="1077" y="173" text-anchor="middle" font-size="10" fill="#eaea10" font-family="Helvetica" font-style="normal" font-weight="400">30</text><rect x="1066" y="264" width="24" height="12" fill="#1c34ab" stroke="none"/><text x="1077" y="273" text-anchor="middle" font-size="10" fill="#eaea10" font-family="Helvetica" font-style="normal" font-weight="400">25</text><rect x="1066" y="364" width="24" height="12" fill="#1c34ab" stroke="none"/><text x="1077" y="373" text-anchor="middle" font-size="10" fill="#eaea10" font-family="Helvetica" font-style="normal" font-weight="400">20</text><rect x="1066" y="464" width="24" height="12" fill="#1c34ab" stroke="none"/><text x="1077" y="473" text-anchor="middle" font-size="10" fill="#eaea10" font-family="Helvetica" font-style="normal" font-weight="400">15</text><rect x="1066" y="564" width="24" height="12" fill="#1c34ab" stroke="none"/><text x="1077" y="573" text-anchor="middle" font-size="10" fill="#eaea10" font-family="Helvetica" font-style="normal" font-weight="400">10</text><rect x="1066" y="664" width="24" height="12" fill="#1c34ab" stroke="none"/><text x="1077" y="673" text-anchor="middle" font-size="10" fill="#eaea10" font-family="Helvetica" font-style="normal" font-weight="400">5</text><rect x="1066" y="764" width="24" height="12" fill="#1c34ab" stroke="none"/><text x="1077" y="773" text-anchor="middle" font-size="10" fill="#eaea10" font-family="Helvetica" font-style="normal" font-weight="400">0</text><rect x="38" y="793" width="24" height="12" fill="#1c34ab" stroke="none"/><text x="50" y="803" text-anchor="middle" font-size="10" fill="#eaea10" font-family="Helvetica" font-style="normal" font-weight="400">0</text><rect x="138" y="793" width="24" height="12" fill="#1c34ab" stroke="none"/><text x="150" y="803" text-anchor="middle" font-size="10" fill="#eaea10" font-family="Helvetica" font-style="normal" font-weight="400">5</text><rect x="238" y="793" width="24" height="12" fill="#1c34ab" stroke="none"/><text x="250" y="803" text-anchor="middle" font-size="10" fill="#eaea10" font-family="Helvetica" font-style="normal" font-weight="400">10</text><rect x="338" y="793" width="24" height="12" fill="#1c34ab" stroke="none"/><text x="350" y="803" text-anchor="middle" font-size="10" fill="#eaea10" font-family="Helvetica" font-style="normal" font-weight="400">15</text><rect x="438" y="793" width="24" height="12" fill="#1c34ab" stroke="none"/><text x="450" y="803" text-anchor="middle" font-size="10" fill="#eaea10" font-family="Helvetica" font-style="normal" font-weight="400">20</text><rect x="538" y="793" width="24" height="12" fill="#1c34ab" stroke="none"/><text x="550" y="803" text-anchor="middle" font-size="10" fill="#eaea10" font-family="Helvetica" font-style="normal" font-weight="400">25</text><rect x="638" y="793" width="24" height="12" fill="#1c34ab" stroke="none"/><text x="650" y="803" text-anchor="middle" font-size="10" fill="#eaea10" font-family="Helvetica" font-style="normal" font-weight="400">30</text><rect x="738" y="793" width="24" height="12" fill="#1c34ab" stroke="none"/><text x="750" y="803" text-anchor="middle" font-size="10" fill="#eaea10" font-family="Helvetica" font-style="normal" font-weight="400">35</text><rect x="838" y="793" width="24" height="12" fill="#1c34ab" stroke="none"/><text x="850" y="803" text-anchor="middle" font-size="10" fill="#eaea10" font-family="Helvetica" font-style="normal" font-weight="400">40</text><rect x="938" y="793" width="24" height="12" fill="#1c34ab" stroke="none"/><text x="950" y="803" text-anchor="middle" font-size="10" fill="#eaea10" font-family="Helvetica" font-style="normal" font-weight="400">45</text><rect x="1038" y="793" width="24" height="12" fill="#1c34ab" stroke="none"/><text x="1050" y="803" text-anchor="middle" font-size="10" fill="#eaea10" font-family="Helvetica" font-style="normal" font-weight="400">50</text><line x1="50" y1="770" x2="1050" y2="502.05" stroke="rgba(234,234,16,0.5)" stroke-width="1" stroke-dasharray="3,2"/><rect x="246.64" y="706.1" width="24" height="14" rx="7" ry="7" fill="#1c34ab" stroke="none"/><text x="258.64" y="717.1" text-anchor="middle" font-size="10" fill="#eaea10" font-family="Helvetica" font-style="normal" font-weight="400">15&#176;</text><line x1="50" y1="770" x2="1050" y2="192.65" stroke="rgba(234,234,16,0.5)" stroke-width="1" stroke-dasharray="3,2"/><rect x="225.06" y="654" width="24" height="14" rx="7" ry="7" fill="#1c34ab" stroke="none"/><text x="237.06" y="665" text-anchor="middle" font-size="10" fill="#eaea10" font-family="Helvetica" font-style="normal" font-weight="400">30&#176;</text><line x1="50" y1="770" x2="770" y2="50" stroke="rgba(234,234,16,0.5)" stroke-width="1" stroke-dasharray="3,2"/><rect x="190.74" y="609.26" width="24" height="14" rx="7" ry="7" fill="#1c34ab" stroke="none"/><text x="202.74" y="620.26" text-anchor="middle" font-size="10" fill="#eaea10" font-family="Helvetica" font-style="normal" font-weight="400">45&#176;</text><line x1="50" y1="770" x2="465.69" y2="50" stroke="rgba(234,234,16,0.5)" stroke-width="1" stroke-dasharray="3,2"/><rect x="146" y="574.94" width="24" height="14" rx="7" ry="7" fill="#1c34ab" stroke="none"/><text x="158" y="585.94" text-anchor="middle" font-size="10" fill="#eaea10" font-family="Helvetica" font-style="normal" font-weight="400">60&#176;</text></svg>